# xmcd
#
# Track frame offsets:
#	150
#	14665
#	31134
#	44580
#	58611
#	72973
#	85901
#	100813
#	113208
#	130160
#	143277
#	154190
#	170120
#	181326
#	197052
#	211575
#	228820
#	248416
#	265764
#
# Disc length: 3692 seconds
#
# Revision: 5
# Processed by: cddbd v1.5.2PL0 Copyright (c) Steve Scherf et al.
# Submitted via: EZCDAudioConverter 8.2.2.1
#
DISCID=fa0e6a13
DTITLE=Alan Jackson - The Essential Alan Jackson
DYEAR=2012
DGENRE=Country
TTITLE0=Ring Of Fire
TTITLE1=Here In The Real World
TTITLE2=Wanted
TTITLE3=Chasin' That Neon Rainbow
TTITLE4=I'd Love You All Over Again
TTITLE5=Don't Rock The Jukebox
TTITLE6=Someday
TTITLE7=Dallas
TTITLE8=Midnight In Montgomery
TTITLE9=Love's Got A Hold On You
TTITLE10=She's Got The Rhythm (And I Got The Blues)
TTITLE11=Tonight I Climbed The Wall
TTITLE12=Chattahoochee
TTITLE13=Who Says You Can't Have It All
TTITLE14=Summertime Blues
TTITLE15=Livin' On Love
TTITLE16=Gone Country
TTITLE17=I Don't Even Know Your Name
TTITLE18=Tall, Tall Trees
EXTD=
EXTT0=
EXTT1=
EXTT2=
EXTT3=
EXTT4=
EXTT5=
EXTT6=
EXTT7=
EXTT8=
EXTT9=
EXTT10=
EXTT11=
EXTT12=
EXTT13=
EXTT14=
EXTT15=
EXTT16=
EXTT17=
EXTT18=
PLAYORDER=
